<?xml version="1.0" standalone="no"?>
<!DOCTYPE svg PUBLIC "-//W3C//DTD SVG 20010904//EN"
 "http://www.w3.org/TR/2001/REC-SVG-20010904/DTD/svg10.dtd">
<svg version="1.0" xmlns="http://www.w3.org/2000/svg"
 width="1950.000000pt" height="1950.000000pt" viewBox="0 0 1950.000000 1950.000000"
 preserveAspectRatio="xMidYMid meet">
<metadata>
Created by potrace 1.14, written by Peter Selinger 2001-2017
</metadata>
<g transform="translate(0.000000,1950.000000) scale(0.100000,-0.100000)"
fill="#000000" stroke="none">
<path d="M3110 16460 c-644 -38 -1248 -308 -1700 -760 -424 -425 -675 -937
-756 -1545 -21 -159 -12 -577 15 -735 97 -558 347 -1045 736 -1435 395 -394
901 -651 1460 -741 138 -22 501 -30 651 -14 609 62 1153 317 1584 741 400 394
652 882 752 1455 20 113 22 164 22 414 0 250 -2 301 -22 414 -100 573 -348
1055 -749 1452 -286 284 -646 504 -1033 630 -188 62 -420 107 -605 119 -182
11 -233 12 -355 5z"/>
<path d="M420 10086 l0 -503 148 -6 c378 -14 834 -154 1205 -371 497 -291 887
-709 1137 -1221 181 -370 265 -714 277 -1126 14 -485 -74 -889 -287 -1324
-349 -713 -993 -1248 -1765 -1464 -136 -38 -350 -77 -470 -87 -49 -4 -97 -8
-105 -10 -8 -1 -43 -3 -77 -3 l-63 -1 0 -500 0 -500 8610 0 8610 0 0 500 0
500 -36 0 c-20 0 -82 9 -137 20 -294 60 -628 220 -920 442 -367 280 -718 697
-902 1073 -85 175 -109 246 -151 454 -264 1308 -721 2314 -1414 3111 -421 485
-973 890 -1541 1133 -544 233 -1074 347 -1738 377 -132 6 -2192 10 -5298 10
l-5083 0 0 -504z m3833 -505 l1287 -1 0 -2805 0 -2805 -1325 0 -1325 0 88 79
c367 332 640 696 858 1146 569 1176 463 2571 -277 3655 -132 194 -244 326
-450 532 -108 108 -195 199 -193 201 2 2 14 3 26 1 13 -1 602 -3 1311 -3z
m6672 -23 c307 -37 496 -70 720 -128 1269 -327 2098 -1186 2604 -2699 102
-305 179 -592 266 -991 53 -245 111 -428 191 -604 170 -377 452 -797 733
-1088 l74 -78 -1597 0 -1597 0 78 88 c160 178 279 352 388 567 297 583 361
1266 179 1897 -121 421 -338 791 -649 1104 -201 202 -396 347 -639 475 -535
280 -1177 364 -1776 232 -1003 -221 -1798 -1044 -1985 -2057 -147 -801 77
-1597 624 -2213 l82 -93 -985 0 -986 0 0 2805 0 2806 2068 -4 c1840 -3 2082
-5 2207 -19z"/>
<path d="M18376 4024 c-185 -45 -337 -183 -397 -362 -31 -89 -33 -250 -5 -332
54 -160 143 -264 282 -334 51 -25 56 -26 257 -26 l204 0 64 33 c86 43 187 144
227 228 50 101 65 178 59 289 -8 155 -61 266 -175 372 -137 126 -333 176 -516
132z m329 -123 c174 -81 278 -286 246 -484 -51 -315 -366 -477 -648 -334 -159
81 -240 232 -231 433 3 85 8 108 35 167 36 76 114 164 179 202 116 68 294 75
419 16z"/>
<path d="M18300 3491 l0 -321 50 0 50 0 0 135 0 136 56 -3 56 -3 80 -132 80
-133 54 0 c30 0 54 2 54 4 0 3 -39 64 -86 136 -47 73 -84 133 -82 134 2 1 25
10 51 20 132 49 143 247 17 316 -42 23 -57 25 -212 28 l-168 4 0 -321z m321
214 c25 -14 41 -44 41 -80 0 -73 -40 -95 -172 -95 l-90 0 0 95 0 95 95 0 c67
0 105 -5 126 -15z"/>
</g>
</svg>
